<?xml version="1.0" encoding="utf-8" standalone="no"?>
<!DOCTYPE svg PUBLIC "-//W3C//DTD SVG 1.1//EN"
  "http://www.w3.org/Graphics/SVG/1.1/DTD/svg11.dtd">
<svg xmlns:xlink="http://www.w3.org/1999/xlink" width="427.32pt" height="332.413813pt" viewBox="0 0 427.32 332.413813" xmlns="http://www.w3.org/2000/svg" version="1.1">
 <metadata>
  <rdf:RDF xmlns:dc="http://purl.org/dc/elements/1.1/" xmlns:cc="http://creativecommons.org/ns#" xmlns:rdf="http://www.w3.org/1999/02/22-rdf-syntax-ns#">
   <cc:Work>
    <dc:type rdf:resource="http://purl.org/dc/dcmitype/StillImage"/>
    <dc:date>2026-07-10T16:49:58.639356</dc:date>
    <dc:format>image/svg+xml</dc:format>
    <dc:creator>
     <cc:Agent>
      <dc:title>Matplotlib v3.9.2, https://matplotlib.org/</dc:title>
     </cc:Agent>
    </dc:creator>
   </cc:Work>
  </rdf:RDF>
 </metadata>
 <defs>
  <style type="text/css">*{stroke-linejoin: round; stroke-linecap: butt}</style>
 </defs>
 <g id="figure_1">
  <g id="patch_1">
   <path d="M 0 332.413813 
L 427.32 332.413813 
L 427.32 0 
L 0 0 
z
" style="fill: #ffffff"/>
  </g>
  <g id="axes_1">
   <g id="patch_2">
    <path d="M 173.60676 71.342964 
L 253.71324 71.342964 
Q 264.03624 71.342964 264.03624 63.858564 
L 264.03624 47.692261 
Q 264.03624 40.20786 253.71324 40.20786 
L 173.60676 40.20786 
Q 163.28376 40.20786 163.28376 47.692261 
L 163.28376 63.858564 
Q 163.28376 71.342964 173.60676 71.342964 
z
" clip-path="url(#p27a7ae97b6)" style="fill: #4c78a8; fill-opacity: 0.094118; stroke: #4c78a8; stroke-width: 1.2; stroke-linejoin: miter"/>
   </g>
   <g id="patch_3">
    <path d="M 165.34836 113.255605 
L 261.97164 113.255605 
Q 272.29464 113.255605 272.29464 105.771205 
L 272.29464 89.604901 
Q 272.29464 82.120501 261.97164 82.120501 
L 165.34836 82.120501 
Q 155.02536 82.120501 155.02536 89.604901 
L 155.02536 105.771205 
Q 155.02536 113.255605 165.34836 113.255605 
z
" clip-path="url(#p27a7ae97b6)" style="fill: #4c78a8; fill-opacity: 0.094118; stroke: #4c78a8; stroke-width: 1.2; stroke-linejoin: miter"/>
   </g>
   <g id="patch_4">
    <path d="M 53.85996 170.137045 
L 125.70804 170.137045 
Q 136.03104 170.137045 136.03104 162.652644 
L 136.03104 146.486341 
Q 136.03104 139.00194 125.70804 139.00194 
L 53.85996 139.00194 
Q 43.53696 139.00194 43.53696 146.486341 
L 43.53696 162.652644 
Q 43.53696 170.137045 53.85996 170.137045 
z
" clip-path="url(#p27a7ae97b6)" style="fill: #f58518; fill-opacity: 0.094118; stroke: #f58518; stroke-width: 1.2; stroke-linejoin: miter"/>
   </g>
   <g id="patch_5">
    <path d="M 177.73596 170.137045 
L 249.58404 170.137045 
Q 259.90704 170.137045 259.90704 162.652644 
L 259.90704 146.486341 
Q 259.90704 139.00194 249.58404 139.00194 
L 177.73596 139.00194 
Q 167.41296 139.00194 167.41296 146.486341 
L 167.41296 162.652644 
Q 167.41296 170.137045 177.73596 170.137045 
z
" clip-path="url(#p27a7ae97b6)" style="fill: #f58518; fill-opacity: 0.094118; stroke: #f58518; stroke-width: 1.2; stroke-linejoin: miter"/>
   </g>
   <g id="patch_6">
    <path d="M 301.61196 170.137045 
L 373.46004 170.137045 
Q 383.78304 170.137045 383.78304 162.652644 
L 383.78304 146.486341 
Q 383.78304 139.00194 373.46004 139.00194 
L 301.61196 139.00194 
Q 291.28896 139.00194 291.28896 146.486341 
L 291.28896 162.652644 
Q 291.28896 170.137045 301.61196 170.137045 
z
" clip-path="url(#p27a7ae97b6)" style="fill: #f58518; fill-opacity: 0.094118; stroke: #f58518; stroke-width: 1.2; stroke-linejoin: miter"/>
   </g>
   <g id="patch_7">
    <path d="M 173.60676 218.037205 
L 253.71324 218.037205 
Q 264.03624 218.037205 264.03624 210.552805 
L 264.03624 194.386501 
Q 264.03624 186.902101 253.71324 186.902101 
L 173.60676 186.902101 
Q 163.28376 186.902101 163.28376 194.386501 
L 163.28376 210.552805 
Q 163.28376 218.037205 173.60676 218.037205 
z
" clip-path="url(#p27a7ae97b6)" style="fill: #54a24b; fill-opacity: 0.094118; stroke: #54a24b; stroke-width: 1.2; stroke-linejoin: miter"/>
   </g>
   <g id="patch_8">
    <path d="M 165.34836 256.956085 
L 261.97164 256.956085 
Q 272.29464 256.956085 272.29464 249.471685 
L 272.29464 233.305381 
Q 272.29464 225.820981 261.97164 225.820981 
L 165.34836 225.820981 
Q 155.02536 225.820981 155.02536 233.305381 
L 155.02536 249.471685 
Q 155.02536 256.956085 165.34836 256.956085 
z
" clip-path="url(#p27a7ae97b6)" style="fill: #54a24b; fill-opacity: 0.094118; stroke: #54a24b; stroke-width: 1.2; stroke-linejoin: miter"/>
   </g>
   <g id="patch_9">
    <path d="M 66.24756 298.868724 
L 129.83724 298.868724 
Q 140.16024 298.868724 140.16024 291.384324 
L 140.16024 275.218021 
Q 140.16024 267.733621 129.83724 267.733621 
L 66.24756 267.733621 
Q 55.92456 267.733621 55.92456 275.218021 
L 55.92456 291.384324 
Q 55.92456 298.868724 66.24756 298.868724 
z
" clip-path="url(#p27a7ae97b6)" style="fill: #b279a2; fill-opacity: 0.094118; stroke: #b279a2; stroke-width: 1.2; stroke-linejoin: miter"/>
   </g>
   <g id="patch_10">
    <path d="M 181.86516 298.868724 
L 245.45484 298.868724 
Q 255.77784 298.868724 255.77784 291.384324 
L 255.77784 275.218021 
Q 255.77784 267.733621 245.45484 267.733621 
L 181.86516 267.733621 
Q 171.54216 267.733621 171.54216 275.218021 
L 171.54216 291.384324 
Q 171.54216 298.868724 181.86516 298.868724 
z
" clip-path="url(#p27a7ae97b6)" style="fill: #b279a2; fill-opacity: 0.094118; stroke: #b279a2; stroke-width: 1.2; stroke-linejoin: miter"/>
   </g>
   <g id="patch_11">
    <path d="M 297.48276 298.868724 
L 361.07244 298.868724 
Q 371.39544 298.868724 371.39544 291.384324 
L 371.39544 275.218021 
Q 371.39544 267.733621 361.07244 267.733621 
L 297.48276 267.733621 
Q 287.15976 267.733621 287.15976 275.218021 
L 287.15976 291.384324 
Q 287.15976 298.868724 297.48276 298.868724 
z
" clip-path="url(#p27a7ae97b6)" style="fill: #b279a2; fill-opacity: 0.094118; stroke: #b279a2; stroke-width: 1.2; stroke-linejoin: miter"/>
   </g>
   <g id="patch_12">
    <path d="M 213.66 70.950911 
Q 213.66 76.734741 213.66 81.344636 
" clip-path="url(#p27a7ae97b6)" style="fill: none; stroke: #4b5563; stroke-width: 1.05; stroke-linecap: round"/>
    <path d="M 215.26 78.144636 
L 213.66 81.344636 
L 212.06 78.144636 
z
" clip-path="url(#p27a7ae97b6)" style="fill: #4b5563; stroke: #4b5563; stroke-width: 1.05; stroke-linecap: round"/>
   </g>
   <g id="patch_13">
    <path d="M 157.508374 99.51073 
Q 145.528669 126.12773 134.030774 151.674224 
" clip-path="url(#p27a7ae97b6)" style="fill: none; stroke: #4b5563; stroke-width: 1.05; stroke-linecap: round"/>
    <path d="M 136.803161 149.412836 
L 134.030774 151.674224 
L 133.885097 148.099482 
z
" clip-path="url(#p27a7ae97b6)" style="fill: #4b5563; stroke: #4b5563; stroke-width: 1.05; stroke-linecap: round"/>
   </g>
   <g id="patch_14">
    <path d="M 213.66 112.862308 
Q 213.66 126.128199 213.66 138.220154 
" clip-path="url(#p27a7ae97b6)" style="fill: none; stroke: #4b5563; stroke-width: 1.05; stroke-linecap: round"/>
    <path d="M 215.26 135.020154 
L 213.66 138.220154 
L 212.06 135.020154 
z
" clip-path="url(#p27a7ae97b6)" style="fill: #4b5563; stroke: #4b5563; stroke-width: 1.05; stroke-linecap: round"/>
   </g>
   <g id="patch_15">
    <path d="M 269.811626 99.51073 
Q 281.791331 126.12773 293.289226 151.674224 
" clip-path="url(#p27a7ae97b6)" style="fill: none; stroke: #4b5563; stroke-width: 1.05; stroke-linecap: round"/>
    <path d="M 293.434903 148.099482 
L 293.289226 151.674224 
L 290.516839 149.412836 
z
" clip-path="url(#p27a7ae97b6)" style="fill: #4b5563; stroke: #4b5563; stroke-width: 1.05; stroke-linecap: round"/>
   </g>
   <g id="patch_16">
    <path d="M 133.882918 156.203781 
Q 149.657147 178.519214 164.75375 199.876027 
" clip-path="url(#p27a7ae97b6)" style="fill: none; stroke: #4b5563; stroke-width: 1.05; stroke-linecap: round"/>
    <path d="M 164.21317 196.339394 
L 164.75375 199.876027 
L 161.600096 198.186512 
z
" clip-path="url(#p27a7ae97b6)" style="fill: #4b5563; stroke: #4b5563; stroke-width: 1.05; stroke-linecap: round"/>
   </g>
   <g id="patch_17">
    <path d="M 213.66 169.744406 
Q 213.66 178.520686 213.66 186.123031 
" clip-path="url(#p27a7ae97b6)" style="fill: none; stroke: #4b5563; stroke-width: 1.05; stroke-linecap: round"/>
    <path d="M 215.26 182.923031 
L 213.66 186.123031 
L 212.06 182.923031 
z
" clip-path="url(#p27a7ae97b6)" style="fill: #4b5563; stroke: #4b5563; stroke-width: 1.05; stroke-linecap: round"/>
   </g>
   <g id="patch_18">
    <path d="M 293.437082 156.203781 
Q 277.662853 178.519214 262.56625 199.876027 
" clip-path="url(#p27a7ae97b6)" style="fill: none; stroke: #4b5563; stroke-width: 1.05; stroke-linecap: round"/>
    <path d="M 265.719904 198.186512 
L 262.56625 199.876027 
L 263.10683 196.339394 
z
" clip-path="url(#p27a7ae97b6)" style="fill: #4b5563; stroke: #4b5563; stroke-width: 1.05; stroke-linecap: round"/>
   </g>
   <g id="patch_19">
    <path d="M 213.66 217.640619 
Q 213.66 221.927826 213.66 225.041098 
" clip-path="url(#p27a7ae97b6)" style="fill: none; stroke: #4b5563; stroke-width: 1.05; stroke-linecap: round"/>
    <path d="M 215.26 221.841098 
L 213.66 225.041098 
L 212.06 221.841098 
z
" clip-path="url(#p27a7ae97b6)" style="fill: #4b5563; stroke: #4b5563; stroke-width: 1.05; stroke-linecap: round"/>
   </g>
   <g id="patch_20">
    <path d="M 157.417897 243.166443 
Q 147.593561 262.343367 138.304481 280.475483 
" clip-path="url(#p27a7ae97b6)" style="fill: none; stroke: #4b5563; stroke-width: 1.05; stroke-linecap: round"/>
    <path d="M 141.187529 278.356984 
L 138.304481 280.475483 
L 138.339511 276.897945 
z
" clip-path="url(#p27a7ae97b6)" style="fill: #4b5563; stroke: #4b5563; stroke-width: 1.05; stroke-linecap: round"/>
   </g>
   <g id="patch_21">
    <path d="M 213.66 256.564031 
Q 213.66 262.347861 213.66 266.957756 
" clip-path="url(#p27a7ae97b6)" style="fill: none; stroke: #4b5563; stroke-width: 1.05; stroke-linecap: round"/>
    <path d="M 215.26 263.757756 
L 213.66 266.957756 
L 212.06 263.757756 
z
" clip-path="url(#p27a7ae97b6)" style="fill: #4b5563; stroke: #4b5563; stroke-width: 1.05; stroke-linecap: round"/>
   </g>
   <g id="patch_22">
    <path d="M 269.902103 243.166443 
Q 279.726439 262.343367 289.015519 280.475483 
" clip-path="url(#p27a7ae97b6)" style="fill: none; stroke: #4b5563; stroke-width: 1.05; stroke-linecap: round"/>
    <path d="M 288.980489 276.897945 
L 289.015519 280.475483 
L 286.132471 278.356984 
z
" clip-path="url(#p27a7ae97b6)" style="fill: #4b5563; stroke: #4b5563; stroke-width: 1.05; stroke-linecap: round"/>
   </g>
   <g id="text_1">
    <!-- Clinical -->
    <g style="fill: #20242a" transform="translate(197.433281 53.219834) scale(0.09 -0.09)">
     <defs>
      <path id="DejaVuSans-43" d="M 4122 4306 
L 4122 3641 
Q 3803 3938 3442 4084 
Q 3081 4231 2675 4231 
Q 1875 4231 1450 3742 
Q 1025 3253 1025 2328 
Q 1025 1406 1450 917 
Q 1875 428 2675 428 
Q 3081 428 3442 575 
Q 3803 722 4122 1019 
L 4122 359 
Q 3791 134 3420 21 
Q 3050 -91 2638 -91 
Q 1578 -91 968 557 
Q 359 1206 359 2328 
Q 359 3453 968 4101 
Q 1578 4750 2638 4750 
Q 3056 4750 3426 4639 
Q 3797 4528 4122 4306 
z
" transform="scale(0.015625)"/>
      <path id="DejaVuSans-6c" d="M 603 4863 
L 1178 4863 
L 1178 0 
L 603 0 
L 603 4863 
z
" transform="scale(0.015625)"/>
      <path id="DejaVuSans-69" d="M 603 3500 
L 1178 3500 
L 1178 0 
L 603 0 
L 603 3500 
z
M 603 4863 
L 1178 4863 
L 1178 4134 
L 603 4134 
L 603 4863 
z
" transform="scale(0.015625)"/>
      <path id="DejaVuSans-6e" d="M 3513 2113 
L 3513 0 
L 2938 0 
L 2938 2094 
Q 2938 2591 2744 2837 
Q 2550 3084 2163 3084 
Q 1697 3084 1428 2787 
Q 1159 2491 1159 1978 
L 1159 0 
L 581 0 
L 581 3500 
L 1159 3500 
L 1159 2956 
Q 1366 3272 1645 3428 
Q 1925 3584 2291 3584 
Q 2894 3584 3203 3211 
Q 3513 2838 3513 2113 
z
" transform="scale(0.015625)"/>
      <path id="DejaVuSans-63" d="M 3122 3366 
L 3122 2828 
Q 2878 2963 2633 3030 
Q 2388 3097 2138 3097 
Q 1578 3097 1268 2742 
Q 959 2388 959 1747 
Q 959 1106 1268 751 
Q 1578 397 2138 397 
Q 2388 397 2633 464 
Q 2878 531 3122 666 
L 3122 134 
Q 2881 22 2623 -34 
Q 2366 -91 2075 -91 
Q 1284 -91 818 406 
Q 353 903 353 1747 
Q 353 2603 823 3093 
Q 1294 3584 2113 3584 
Q 2378 3584 2631 3529 
Q 2884 3475 3122 3366 
z
" transform="scale(0.015625)"/>
      <path id="DejaVuSans-61" d="M 2194 1759 
Q 1497 1759 1228 1600 
Q 959 1441 959 1056 
Q 959 750 1161 570 
Q 1363 391 1709 391 
Q 2188 391 2477 730 
Q 2766 1069 2766 1631 
L 2766 1759 
L 2194 1759 
z
M 3341 1997 
L 3341 0 
L 2766 0 
L 2766 531 
Q 2569 213 2275 61 
Q 1981 -91 1556 -91 
Q 1019 -91 701 211 
Q 384 513 384 1019 
Q 384 1609 779 1909 
Q 1175 2209 1959 2209 
L 2766 2209 
L 2766 2266 
Q 2766 2663 2505 2880 
Q 2244 3097 1772 3097 
Q 1472 3097 1187 3025 
Q 903 2953 641 2809 
L 641 3341 
Q 956 3463 1253 3523 
Q 1550 3584 1831 3584 
Q 2591 3584 2966 3190 
Q 3341 2797 3341 1997 
z
" transform="scale(0.015625)"/>
     </defs>
     <use xlink:href="#DejaVuSans-43"/>
     <use xlink:href="#DejaVuSans-6c" x="69.824219"/>
     <use xlink:href="#DejaVuSans-69" x="97.607422"/>
     <use xlink:href="#DejaVuSans-6e" x="125.390625"/>
     <use xlink:href="#DejaVuSans-69" x="188.769531"/>
     <use xlink:href="#DejaVuSans-63" x="216.552734"/>
     <use xlink:href="#DejaVuSans-61" x="271.533203"/>
     <use xlink:href="#DejaVuSans-6c" x="332.8125"/>
    </g>
    <!-- Documents -->
    <g style="fill: #20242a" transform="translate(188.002969 63.297866) scale(0.09 -0.09)">
     <defs>
      <path id="DejaVuSans-44" d="M 1259 4147 
L 1259 519 
L 2022 519 
Q 2988 519 3436 956 
Q 3884 1394 3884 2338 
Q 3884 3275 3436 3711 
Q 2988 4147 2022 4147 
L 1259 4147 
z
M 628 4666 
L 1925 4666 
Q 3281 4666 3915 4102 
Q 4550 3538 4550 2338 
Q 4550 1131 3912 565 
Q 3275 0 1925 0 
L 628 0 
L 628 4666 
z
" transform="scale(0.015625)"/>
      <path id="DejaVuSans-6f" d="M 1959 3097 
Q 1497 3097 1228 2736 
Q 959 2375 959 1747 
Q 959 1119 1226 758 
Q 1494 397 1959 397 
Q 2419 397 2687 759 
Q 2956 1122 2956 1747 
Q 2956 2369 2687 2733 
Q 2419 3097 1959 3097 
z
M 1959 3584 
Q 2709 3584 3137 3096 
Q 3566 2609 3566 1747 
Q 3566 888 3137 398 
Q 2709 -91 1959 -91 
Q 1206 -91 779 398 
Q 353 888 353 1747 
Q 353 2609 779 3096 
Q 1206 3584 1959 3584 
z
" transform="scale(0.015625)"/>
      <path id="DejaVuSans-75" d="M 544 1381 
L 544 3500 
L 1119 3500 
L 1119 1403 
Q 1119 906 1312 657 
Q 1506 409 1894 409 
Q 2359 409 2629 706 
Q 2900 1003 2900 1516 
L 2900 3500 
L 3475 3500 
L 3475 0 
L 2900 0 
L 2900 538 
Q 2691 219 2414 64 
Q 2138 -91 1772 -91 
Q 1169 -91 856 284 
Q 544 659 544 1381 
z
M 1991 3584 
L 1991 3584 
z
" transform="scale(0.015625)"/>
      <path id="DejaVuSans-6d" d="M 3328 2828 
Q 3544 3216 3844 3400 
Q 4144 3584 4550 3584 
Q 5097 3584 5394 3201 
Q 5691 2819 5691 2113 
L 5691 0 
L 5113 0 
L 5113 2094 
Q 5113 2597 4934 2840 
Q 4756 3084 4391 3084 
Q 3944 3084 3684 2787 
Q 3425 2491 3425 1978 
L 3425 0 
L 2847 0 
L 2847 2094 
Q 2847 2600 2669 2842 
Q 2491 3084 2119 3084 
Q 1678 3084 1418 2786 
Q 1159 2488 1159 1978 
L 1159 0 
L 581 0 
L 581 3500 
L 1159 3500 
L 1159 2956 
Q 1356 3278 1631 3431 
Q 1906 3584 2284 3584 
Q 2666 3584 2933 3390 
Q 3200 3197 3328 2828 
z
" transform="scale(0.015625)"/>
      <path id="DejaVuSans-65" d="M 3597 1894 
L 3597 1613 
L 953 1613 
Q 991 1019 1311 708 
Q 1631 397 2203 397 
Q 2534 397 2845 478 
Q 3156 559 3463 722 
L 3463 178 
Q 3153 47 2828 -22 
Q 2503 -91 2169 -91 
Q 1331 -91 842 396 
Q 353 884 353 1716 
Q 353 2575 817 3079 
Q 1281 3584 2069 3584 
Q 2775 3584 3186 3129 
Q 3597 2675 3597 1894 
z
M 3022 2063 
Q 3016 2534 2758 2815 
Q 2500 3097 2075 3097 
Q 1594 3097 1305 2825 
Q 1016 2553 972 2059 
L 3022 2063 
z
" transform="scale(0.015625)"/>
      <path id="DejaVuSans-74" d="M 1172 4494 
L 1172 3500 
L 2356 3500 
L 2356 3053 
L 1172 3053 
L 1172 1153 
Q 1172 725 1289 603 
Q 1406 481 1766 481 
L 2356 481 
L 2356 0 
L 1766 0 
Q 1100 0 847 248 
Q 594 497 594 1153 
L 594 3053 
L 172 3053 
L 172 3500 
L 594 3500 
L 594 4494 
L 1172 4494 
z
" transform="scale(0.015625)"/>
      <path id="DejaVuSans-73" d="M 2834 3397 
L 2834 2853 
Q 2591 2978 2328 3040 
Q 2066 3103 1784 3103 
Q 1356 3103 1142 2972 
Q 928 2841 928 2578 
Q 928 2378 1081 2264 
Q 1234 2150 1697 2047 
L 1894 2003 
Q 2506 1872 2764 1633 
Q 3022 1394 3022 966 
Q 3022 478 2636 193 
Q 2250 -91 1575 -91 
Q 1294 -91 989 -36 
Q 684 19 347 128 
L 347 722 
Q 666 556 975 473 
Q 1284 391 1588 391 
Q 1994 391 2212 530 
Q 2431 669 2431 922 
Q 2431 1156 2273 1281 
Q 2116 1406 1581 1522 
L 1381 1569 
Q 847 1681 609 1914 
Q 372 2147 372 2553 
Q 372 3047 722 3315 
Q 1072 3584 1716 3584 
Q 2034 3584 2315 3537 
Q 2597 3491 2834 3397 
z
" transform="scale(0.015625)"/>
     </defs>
     <use xlink:href="#DejaVuSans-44"/>
     <use xlink:href="#DejaVuSans-6f" x="77.001953"/>
     <use xlink:href="#DejaVuSans-63" x="138.183594"/>
     <use xlink:href="#DejaVuSans-75" x="193.164062"/>
     <use xlink:href="#DejaVuSans-6d" x="256.542969"/>
     <use xlink:href="#DejaVuSans-65" x="353.955078"/>
     <use xlink:href="#DejaVuSans-6e" x="415.478516"/>
     <use xlink:href="#DejaVuSans-74" x="478.857422"/>
     <use xlink:href="#DejaVuSans-73" x="518.066406"/>
    </g>
   </g>
   <g id="text_2">
    <!-- Dataset -->
    <g style="fill: #20242a" transform="translate(196.038281 95.132474) scale(0.09 -0.09)">
     <use xlink:href="#DejaVuSans-44"/>
     <use xlink:href="#DejaVuSans-61" x="77.001953"/>
     <use xlink:href="#DejaVuSans-74" x="138.28125"/>
     <use xlink:href="#DejaVuSans-61" x="177.490234"/>
     <use xlink:href="#DejaVuSans-73" x="238.769531"/>
     <use xlink:href="#DejaVuSans-65" x="290.869141"/>
     <use xlink:href="#DejaVuSans-74" x="352.392578"/>
    </g>
    <!-- Construction -->
    <g style="fill: #20242a" transform="translate(185.008359 105.210506) scale(0.09 -0.09)">
     <defs>
      <path id="DejaVuSans-72" d="M 2631 2963 
Q 2534 3019 2420 3045 
Q 2306 3072 2169 3072 
Q 1681 3072 1420 2755 
Q 1159 2438 1159 1844 
L 1159 0 
L 581 0 
L 581 3500 
L 1159 3500 
L 1159 2956 
Q 1341 3275 1631 3429 
Q 1922 3584 2338 3584 
Q 2397 3584 2469 3576 
Q 2541 3569 2628 3553 
L 2631 2963 
z
" transform="scale(0.015625)"/>
     </defs>
     <use xlink:href="#DejaVuSans-43"/>
     <use xlink:href="#DejaVuSans-6f" x="69.824219"/>
     <use xlink:href="#DejaVuSans-6e" x="131.005859"/>
     <use xlink:href="#DejaVuSans-73" x="194.384766"/>
     <use xlink:href="#DejaVuSans-74" x="246.484375"/>
     <use xlink:href="#DejaVuSans-72" x="285.693359"/>
     <use xlink:href="#DejaVuSans-75" x="326.806641"/>
     <use xlink:href="#DejaVuSans-63" x="390.185547"/>
     <use xlink:href="#DejaVuSans-74" x="445.166016"/>
     <use xlink:href="#DejaVuSans-69" x="484.375"/>
     <use xlink:href="#DejaVuSans-6f" x="512.158203"/>
     <use xlink:href="#DejaVuSans-6e" x="573.339844"/>
    </g>
   </g>
   <g id="text_3">
    <!-- OCR -->
    <g style="fill: #20242a" transform="translate(79.972594 152.013914) scale(0.09 -0.09)">
     <defs>
      <path id="DejaVuSans-4f" d="M 2522 4238 
Q 1834 4238 1429 3725 
Q 1025 3213 1025 2328 
Q 1025 1447 1429 934 
Q 1834 422 2522 422 
Q 3209 422 3611 934 
Q 4013 1447 4013 2328 
Q 4013 3213 3611 3725 
Q 3209 4238 2522 4238 
z
M 2522 4750 
Q 3503 4750 4090 4092 
Q 4678 3434 4678 2328 
Q 4678 1225 4090 567 
Q 3503 -91 2522 -91 
Q 1538 -91 948 565 
Q 359 1222 359 2328 
Q 359 3434 948 4092 
Q 1538 4750 2522 4750 
z
" transform="scale(0.015625)"/>
      <path id="DejaVuSans-52" d="M 2841 2188 
Q 3044 2119 3236 1894 
Q 3428 1669 3622 1275 
L 4263 0 
L 3584 0 
L 2988 1197 
Q 2756 1666 2539 1819 
Q 2322 1972 1947 1972 
L 1259 1972 
L 1259 0 
L 628 0 
L 628 4666 
L 2053 4666 
Q 2853 4666 3247 4331 
Q 3641 3997 3641 3322 
Q 3641 2881 3436 2590 
Q 3231 2300 2841 2188 
z
M 1259 4147 
L 1259 2491 
L 2053 2491 
Q 2509 2491 2742 2702 
Q 2975 2913 2975 3322 
Q 2975 3731 2742 3939 
Q 2509 4147 2053 4147 
L 1259 4147 
z
" transform="scale(0.015625)"/>
     </defs>
     <use xlink:href="#DejaVuSans-4f"/>
     <use xlink:href="#DejaVuSans-43" x="78.710938"/>
     <use xlink:href="#DejaVuSans-52" x="148.535156"/>
    </g>
    <!-- Track -->
    <g style="fill: #20242a" transform="translate(78.011578 162.091946) scale(0.09 -0.09)">
     <defs>
      <path id="DejaVuSans-54" d="M -19 4666 
L 3928 4666 
L 3928 4134 
L 2272 4134 
L 2272 0 
L 1638 0 
L 1638 4134 
L -19 4134 
L -19 4666 
z
" transform="scale(0.015625)"/>
      <path id="DejaVuSans-6b" d="M 581 4863 
L 1159 4863 
L 1159 1991 
L 2875 3500 
L 3609 3500 
L 1753 1863 
L 3688 0 
L 2938 0 
L 1159 1709 
L 1159 0 
L 581 0 
L 581 4863 
z
" transform="scale(0.015625)"/>
     </defs>
     <use xlink:href="#DejaVuSans-54"/>
     <use xlink:href="#DejaVuSans-72" x="46.333984"/>
     <use xlink:href="#DejaVuSans-61" x="87.447266"/>
     <use xlink:href="#DejaVuSans-63" x="148.726562"/>
     <use xlink:href="#DejaVuSans-6b" x="203.707031"/>
    </g>
   </g>
   <g id="text_4">
    <!-- Direct VLM -->
    <g style="fill: #20242a" transform="translate(189.290391 152.013914) scale(0.09 -0.09)">
     <defs>
      <path id="DejaVuSans-20" transform="scale(0.015625)"/>
      <path id="DejaVuSans-56" d="M 1831 0 
L 50 4666 
L 709 4666 
L 2188 738 
L 3669 4666 
L 4325 4666 
L 2547 0 
L 1831 0 
z
" transform="scale(0.015625)"/>
      <path id="DejaVuSans-4c" d="M 628 4666 
L 1259 4666 
L 1259 531 
L 3531 531 
L 3531 0 
L 628 0 
L 628 4666 
z
" transform="scale(0.015625)"/>
      <path id="DejaVuSans-4d" d="M 628 4666 
L 1569 4666 
L 2759 1491 
L 3956 4666 
L 4897 4666 
L 4897 0 
L 4281 0 
L 4281 4097 
L 3078 897 
L 2444 897 
L 1241 4097 
L 1241 0 
L 628 0 
L 628 4666 
z
" transform="scale(0.015625)"/>
     </defs>
     <use xlink:href="#DejaVuSans-44"/>
     <use xlink:href="#DejaVuSans-69" x="77.001953"/>
     <use xlink:href="#DejaVuSans-72" x="104.785156"/>
     <use xlink:href="#DejaVuSans-65" x="143.648438"/>
     <use xlink:href="#DejaVuSans-63" x="205.171875"/>
     <use xlink:href="#DejaVuSans-74" x="260.152344"/>
     <use xlink:href="#DejaVuSans-20" x="299.361328"/>
     <use xlink:href="#DejaVuSans-56" x="331.148438"/>
     <use xlink:href="#DejaVuSans-4c" x="399.556641"/>
     <use xlink:href="#DejaVuSans-4d" x="455.269531"/>
    </g>
    <!-- Track -->
    <g style="fill: #20242a" transform="translate(201.887578 162.091946) scale(0.09 -0.09)">
     <use xlink:href="#DejaVuSans-54"/>
     <use xlink:href="#DejaVuSans-72" x="46.333984"/>
     <use xlink:href="#DejaVuSans-61" x="87.447266"/>
     <use xlink:href="#DejaVuSans-63" x="148.726562"/>
     <use xlink:href="#DejaVuSans-6b" x="203.707031"/>
    </g>
   </g>
   <g id="text_5">
    <!-- Hybrid -->
    <g style="fill: #20242a" transform="translate(322.67475 152.013914) scale(0.09 -0.09)">
     <defs>
      <path id="DejaVuSans-48" d="M 628 4666 
L 1259 4666 
L 1259 2753 
L 3553 2753 
L 3553 4666 
L 4184 4666 
L 4184 0 
L 3553 0 
L 3553 2222 
L 1259 2222 
L 1259 0 
L 628 0 
L 628 4666 
z
" transform="scale(0.015625)"/>
      <path id="DejaVuSans-79" d="M 2059 -325 
Q 1816 -950 1584 -1140 
Q 1353 -1331 966 -1331 
L 506 -1331 
L 506 -850 
L 844 -850 
Q 1081 -850 1212 -737 
Q 1344 -625 1503 -206 
L 1606 56 
L 191 3500 
L 800 3500 
L 1894 763 
L 2988 3500 
L 3597 3500 
L 2059 -325 
z
" transform="scale(0.015625)"/>
      <path id="DejaVuSans-62" d="M 3116 1747 
Q 3116 2381 2855 2742 
Q 2594 3103 2138 3103 
Q 1681 3103 1420 2742 
Q 1159 2381 1159 1747 
Q 1159 1113 1420 752 
Q 1681 391 2138 391 
Q 2594 391 2855 752 
Q 3116 1113 3116 1747 
z
M 1159 2969 
Q 1341 3281 1617 3432 
Q 1894 3584 2278 3584 
Q 2916 3584 3314 3078 
Q 3713 2572 3713 1747 
Q 3713 922 3314 415 
Q 2916 -91 2278 -91 
Q 1894 -91 1617 61 
Q 1341 213 1159 525 
L 1159 0 
L 581 0 
L 581 4863 
L 1159 4863 
L 1159 2969 
z
" transform="scale(0.015625)"/>
      <path id="DejaVuSans-64" d="M 2906 2969 
L 2906 4863 
L 3481 4863 
L 3481 0 
L 2906 0 
L 2906 525 
Q 2725 213 2448 61 
Q 2172 -91 1784 -91 
Q 1150 -91 751 415 
Q 353 922 353 1747 
Q 353 2572 751 3078 
Q 1150 3584 1784 3584 
Q 2172 3584 2448 3432 
Q 2725 3281 2906 2969 
z
M 947 1747 
Q 947 1113 1208 752 
Q 1469 391 1925 391 
Q 2381 391 2643 752 
Q 2906 1113 2906 1747 
Q 2906 2381 2643 2742 
Q 2381 3103 1925 3103 
Q 1469 3103 1208 2742 
Q 947 2381 947 1747 
z
" transform="scale(0.015625)"/>
     </defs>
     <use xlink:href="#DejaVuSans-48"/>
     <use xlink:href="#DejaVuSans-79" x="75.195312"/>
     <use xlink:href="#DejaVuSans-62" x="134.375"/>
     <use xlink:href="#DejaVuSans-72" x="197.851562"/>
     <use xlink:href="#DejaVuSans-69" x="238.964844"/>
     <use xlink:href="#DejaVuSans-64" x="266.748047"/>
    </g>
    <!-- OCR+LLM -->
    <g style="fill: #20242a" transform="translate(315.056391 162.091946) scale(0.09 -0.09)">
     <defs>
      <path id="DejaVuSans-2b" d="M 2944 4013 
L 2944 2272 
L 4684 2272 
L 4684 1741 
L 2944 1741 
L 2944 0 
L 2419 0 
L 2419 1741 
L 678 1741 
L 678 2272 
L 2419 2272 
L 2419 4013 
L 2944 4013 
z
" transform="scale(0.015625)"/>
     </defs>
     <use xlink:href="#DejaVuSans-4f"/>
     <use xlink:href="#DejaVuSans-43" x="78.710938"/>
     <use xlink:href="#DejaVuSans-52" x="148.535156"/>
     <use xlink:href="#DejaVuSans-2b" x="218.017578"/>
     <use xlink:href="#DejaVuSans-4c" x="301.806641"/>
     <use xlink:href="#DejaVuSans-4c" x="357.519531"/>
     <use xlink:href="#DejaVuSans-4d" x="413.232422"/>
    </g>
   </g>
   <g id="text_6">
    <!-- Canonical -->
    <g style="fill: #20242a" transform="translate(191.570625 199.914074) scale(0.09 -0.09)">
     <use xlink:href="#DejaVuSans-43"/>
     <use xlink:href="#DejaVuSans-61" x="69.824219"/>
     <use xlink:href="#DejaVuSans-6e" x="131.103516"/>
     <use xlink:href="#DejaVuSans-6f" x="194.482422"/>
     <use xlink:href="#DejaVuSans-6e" x="255.664062"/>
     <use xlink:href="#DejaVuSans-69" x="319.042969"/>
     <use xlink:href="#DejaVuSans-63" x="346.826172"/>
     <use xlink:href="#DejaVuSans-61" x="401.806641"/>
     <use xlink:href="#DejaVuSans-6c" x="463.085938"/>
    </g>
    <!-- JSON -->
    <g style="fill: #20242a" transform="translate(202.566797 209.992106) scale(0.09 -0.09)">
     <defs>
      <path id="DejaVuSans-4a" d="M 628 4666 
L 1259 4666 
L 1259 325 
Q 1259 -519 939 -900 
Q 619 -1281 -91 -1281 
L -331 -1281 
L -331 -750 
L -134 -750 
Q 284 -750 456 -515 
Q 628 -281 628 325 
L 628 4666 
z
" transform="scale(0.015625)"/>
      <path id="DejaVuSans-53" d="M 3425 4513 
L 3425 3897 
Q 3066 4069 2747 4153 
Q 2428 4238 2131 4238 
Q 1616 4238 1336 4038 
Q 1056 3838 1056 3469 
Q 1056 3159 1242 3001 
Q 1428 2844 1947 2747 
L 2328 2669 
Q 3034 2534 3370 2195 
Q 3706 1856 3706 1288 
Q 3706 609 3251 259 
Q 2797 -91 1919 -91 
Q 1588 -91 1214 -16 
Q 841 59 441 206 
L 441 856 
Q 825 641 1194 531 
Q 1563 422 1919 422 
Q 2459 422 2753 634 
Q 3047 847 3047 1241 
Q 3047 1584 2836 1778 
Q 2625 1972 2144 2069 
L 1759 2144 
Q 1053 2284 737 2584 
Q 422 2884 422 3419 
Q 422 4038 858 4394 
Q 1294 4750 2059 4750 
Q 2388 4750 2728 4690 
Q 3069 4631 3425 4513 
z
" transform="scale(0.015625)"/>
      <path id="DejaVuSans-4e" d="M 628 4666 
L 1478 4666 
L 3547 763 
L 3547 4666 
L 4159 4666 
L 4159 0 
L 3309 0 
L 1241 3903 
L 1241 0 
L 628 0 
L 628 4666 
z
" transform="scale(0.015625)"/>
     </defs>
     <use xlink:href="#DejaVuSans-4a"/>
     <use xlink:href="#DejaVuSans-53" x="29.492188"/>
     <use xlink:href="#DejaVuSans-4f" x="92.96875"/>
     <use xlink:href="#DejaVuSans-4e" x="171.679688"/>
    </g>
   </g>
   <g id="text_7">
    <!-- Evaluation -->
    <g style="fill: #20242a" transform="translate(189.916172 238.832954) scale(0.09 -0.09)">
     <defs>
      <path id="DejaVuSans-45" d="M 628 4666 
L 3578 4666 
L 3578 4134 
L 1259 4134 
L 1259 2753 
L 3481 2753 
L 3481 2222 
L 1259 2222 
L 1259 531 
L 3634 531 
L 3634 0 
L 628 0 
L 628 4666 
z
" transform="scale(0.015625)"/>
      <path id="DejaVuSans-76" d="M 191 3500 
L 800 3500 
L 1894 563 
L 2988 3500 
L 3597 3500 
L 2284 0 
L 1503 0 
L 191 3500 
z
" transform="scale(0.015625)"/>
     </defs>
     <use xlink:href="#DejaVuSans-45"/>
     <use xlink:href="#DejaVuSans-76" x="63.183594"/>
     <use xlink:href="#DejaVuSans-61" x="122.363281"/>
     <use xlink:href="#DejaVuSans-6c" x="183.642578"/>
     <use xlink:href="#DejaVuSans-75" x="211.425781"/>
     <use xlink:href="#DejaVuSans-61" x="274.804688"/>
     <use xlink:href="#DejaVuSans-74" x="336.083984"/>
     <use xlink:href="#DejaVuSans-69" x="375.292969"/>
     <use xlink:href="#DejaVuSans-6f" x="403.076172"/>
     <use xlink:href="#DejaVuSans-6e" x="464.257812"/>
    </g>
    <!-- Engine -->
    <g style="fill: #20242a" transform="translate(198.236953 248.910986) scale(0.09 -0.09)">
     <defs>
      <path id="DejaVuSans-67" d="M 2906 1791 
Q 2906 2416 2648 2759 
Q 2391 3103 1925 3103 
Q 1463 3103 1205 2759 
Q 947 2416 947 1791 
Q 947 1169 1205 825 
Q 1463 481 1925 481 
Q 2391 481 2648 825 
Q 2906 1169 2906 1791 
z
M 3481 434 
Q 3481 -459 3084 -895 
Q 2688 -1331 1869 -1331 
Q 1566 -1331 1297 -1286 
Q 1028 -1241 775 -1147 
L 775 -588 
Q 1028 -725 1275 -790 
Q 1522 -856 1778 -856 
Q 2344 -856 2625 -561 
Q 2906 -266 2906 331 
L 2906 616 
Q 2728 306 2450 153 
Q 2172 0 1784 0 
Q 1141 0 747 490 
Q 353 981 353 1791 
Q 353 2603 747 3093 
Q 1141 3584 1784 3584 
Q 2172 3584 2450 3431 
Q 2728 3278 2906 2969 
L 2906 3500 
L 3481 3500 
L 3481 434 
z
" transform="scale(0.015625)"/>
     </defs>
     <use xlink:href="#DejaVuSans-45"/>
     <use xlink:href="#DejaVuSans-6e" x="63.183594"/>
     <use xlink:href="#DejaVuSans-67" x="126.5625"/>
     <use xlink:href="#DejaVuSans-69" x="190.039062"/>
     <use xlink:href="#DejaVuSans-6e" x="217.822266"/>
     <use xlink:href="#DejaVuSans-65" x="281.201172"/>
    </g>
   </g>
   <g id="text_8">
    <!-- Metrics -->
    <g style="fill: #20242a" transform="translate(81.708103 285.78461) scale(0.09 -0.09)">
     <use xlink:href="#DejaVuSans-4d"/>
     <use xlink:href="#DejaVuSans-65" x="86.279297"/>
     <use xlink:href="#DejaVuSans-74" x="147.802734"/>
     <use xlink:href="#DejaVuSans-72" x="187.011719"/>
     <use xlink:href="#DejaVuSans-69" x="228.125"/>
     <use xlink:href="#DejaVuSans-63" x="255.908203"/>
     <use xlink:href="#DejaVuSans-73" x="310.888672"/>
    </g>
   </g>
   <g id="text_9">
    <!-- Statistical -->
    <g style="fill: #20242a" transform="translate(191.426484 280.745594) scale(0.09 -0.09)">
     <use xlink:href="#DejaVuSans-53"/>
     <use xlink:href="#DejaVuSans-74" x="63.476562"/>
     <use xlink:href="#DejaVuSans-61" x="102.685547"/>
     <use xlink:href="#DejaVuSans-74" x="163.964844"/>
     <use xlink:href="#DejaVuSans-69" x="203.173828"/>
     <use xlink:href="#DejaVuSans-73" x="230.957031"/>
     <use xlink:href="#DejaVuSans-74" x="283.056641"/>
     <use xlink:href="#DejaVuSans-69" x="322.265625"/>
     <use xlink:href="#DejaVuSans-63" x="350.048828"/>
     <use xlink:href="#DejaVuSans-61" x="405.029297"/>
     <use xlink:href="#DejaVuSans-6c" x="466.308594"/>
    </g>
    <!-- Analysis -->
    <g style="fill: #20242a" transform="translate(195.12 290.823626) scale(0.09 -0.09)">
     <defs>
      <path id="DejaVuSans-41" d="M 2188 4044 
L 1331 1722 
L 3047 1722 
L 2188 4044 
z
M 1831 4666 
L 2547 4666 
L 4325 0 
L 3669 0 
L 3244 1197 
L 1141 1197 
L 716 0 
L 50 0 
L 1831 4666 
z
" transform="scale(0.015625)"/>
     </defs>
     <use xlink:href="#DejaVuSans-41"/>
     <use xlink:href="#DejaVuSans-6e" x="68.408203"/>
     <use xlink:href="#DejaVuSans-61" x="131.787109"/>
     <use xlink:href="#DejaVuSans-6c" x="193.066406"/>
     <use xlink:href="#DejaVuSans-79" x="220.849609"/>
     <use xlink:href="#DejaVuSans-73" x="280.029297"/>
     <use xlink:href="#DejaVuSans-69" x="332.128906"/>
     <use xlink:href="#DejaVuSans-73" x="359.912109"/>
    </g>
   </g>
   <g id="text_10">
    <!-- Leaderboard -->
    <g style="fill: #20242a" transform="translate(300.850959 285.78461) scale(0.09 -0.09)">
     <use xlink:href="#DejaVuSans-4c"/>
     <use xlink:href="#DejaVuSans-65" x="53.962891"/>
     <use xlink:href="#DejaVuSans-61" x="115.486328"/>
     <use xlink:href="#DejaVuSans-64" x="176.765625"/>
     <use xlink:href="#DejaVuSans-65" x="240.242188"/>
     <use xlink:href="#DejaVuSans-72" x="301.765625"/>
     <use xlink:href="#DejaVuSans-62" x="342.878906"/>
     <use xlink:href="#DejaVuSans-6f" x="406.355469"/>
     <use xlink:href="#DejaVuSans-61" x="467.537109"/>
     <use xlink:href="#DejaVuSans-72" x="528.816406"/>
     <use xlink:href="#DejaVuSans-64" x="568.179688"/>
    </g>
   </g>
   <g id="text_11">
    <!-- Overall Benchmark Architecture -->
    <g transform="translate(7.2 17.837812) scale(0.14 -0.14)">
     <defs>
      <path id="DejaVuSans-Bold-4f" d="M 2719 3878 
Q 2169 3878 1866 3472 
Q 1563 3066 1563 2328 
Q 1563 1594 1866 1187 
Q 2169 781 2719 781 
Q 3272 781 3575 1187 
Q 3878 1594 3878 2328 
Q 3878 3066 3575 3472 
Q 3272 3878 2719 3878 
z
M 2719 4750 
Q 3844 4750 4481 4106 
Q 5119 3463 5119 2328 
Q 5119 1197 4481 553 
Q 3844 -91 2719 -91 
Q 1597 -91 958 553 
Q 319 1197 319 2328 
Q 319 3463 958 4106 
Q 1597 4750 2719 4750 
z
" transform="scale(0.015625)"/>
      <path id="DejaVuSans-Bold-76" d="M 97 3500 
L 1216 3500 
L 2088 1081 
L 2956 3500 
L 4078 3500 
L 2700 0 
L 1472 0 
L 97 3500 
z
" transform="scale(0.015625)"/>
      <path id="DejaVuSans-Bold-65" d="M 4031 1759 
L 4031 1441 
L 1416 1441 
Q 1456 1047 1700 850 
Q 1944 653 2381 653 
Q 2734 653 3104 758 
Q 3475 863 3866 1075 
L 3866 213 
Q 3469 63 3072 -14 
Q 2675 -91 2278 -91 
Q 1328 -91 801 392 
Q 275 875 275 1747 
Q 275 2603 792 3093 
Q 1309 3584 2216 3584 
Q 3041 3584 3536 3087 
Q 4031 2591 4031 1759 
z
M 2881 2131 
Q 2881 2450 2695 2645 
Q 2509 2841 2209 2841 
Q 1884 2841 1681 2658 
Q 1478 2475 1428 2131 
L 2881 2131 
z
" transform="scale(0.015625)"/>
      <path id="DejaVuSans-Bold-72" d="M 3138 2547 
Q 2991 2616 2845 2648 
Q 2700 2681 2553 2681 
Q 2122 2681 1889 2404 
Q 1656 2128 1656 1613 
L 1656 0 
L 538 0 
L 538 3500 
L 1656 3500 
L 1656 2925 
Q 1872 3269 2151 3426 
Q 2431 3584 2822 3584 
Q 2878 3584 2943 3579 
Q 3009 3575 3134 3559 
L 3138 2547 
z
" transform="scale(0.015625)"/>
      <path id="DejaVuSans-Bold-61" d="M 2106 1575 
Q 1756 1575 1579 1456 
Q 1403 1338 1403 1106 
Q 1403 894 1545 773 
Q 1688 653 1941 653 
Q 2256 653 2472 879 
Q 2688 1106 2688 1447 
L 2688 1575 
L 2106 1575 
z
M 3816 1997 
L 3816 0 
L 2688 0 
L 2688 519 
Q 2463 200 2181 54 
Q 1900 -91 1497 -91 
Q 953 -91 614 226 
Q 275 544 275 1050 
Q 275 1666 698 1953 
Q 1122 2241 2028 2241 
L 2688 2241 
L 2688 2328 
Q 2688 2594 2478 2717 
Q 2269 2841 1825 2841 
Q 1466 2841 1156 2769 
Q 847 2697 581 2553 
L 581 3406 
Q 941 3494 1303 3539 
Q 1666 3584 2028 3584 
Q 2975 3584 3395 3211 
Q 3816 2838 3816 1997 
z
" transform="scale(0.015625)"/>
      <path id="DejaVuSans-Bold-6c" d="M 538 4863 
L 1656 4863 
L 1656 0 
L 538 0 
L 538 4863 
z
" transform="scale(0.015625)"/>
      <path id="DejaVuSans-Bold-20" transform="scale(0.015625)"/>
      <path id="DejaVuSans-Bold-42" d="M 2456 2859 
Q 2741 2859 2887 2984 
Q 3034 3109 3034 3353 
Q 3034 3594 2887 3720 
Q 2741 3847 2456 3847 
L 1791 3847 
L 1791 2859 
L 2456 2859 
z
M 2497 819 
Q 2859 819 3042 972 
Q 3225 1125 3225 1434 
Q 3225 1738 3044 1889 
Q 2863 2041 2497 2041 
L 1791 2041 
L 1791 819 
L 2497 819 
z
M 3616 2497 
Q 4003 2384 4215 2081 
Q 4428 1778 4428 1338 
Q 4428 663 3972 331 
Q 3516 0 2584 0 
L 588 0 
L 588 4666 
L 2394 4666 
Q 3366 4666 3802 4372 
Q 4238 4078 4238 3431 
Q 4238 3091 4078 2852 
Q 3919 2613 3616 2497 
z
" transform="scale(0.015625)"/>
      <path id="DejaVuSans-Bold-6e" d="M 4056 2131 
L 4056 0 
L 2931 0 
L 2931 347 
L 2931 1631 
Q 2931 2084 2911 2256 
Q 2891 2428 2841 2509 
Q 2775 2619 2662 2680 
Q 2550 2741 2406 2741 
Q 2056 2741 1856 2470 
Q 1656 2200 1656 1722 
L 1656 0 
L 538 0 
L 538 3500 
L 1656 3500 
L 1656 2988 
Q 1909 3294 2193 3439 
Q 2478 3584 2822 3584 
Q 3428 3584 3742 3212 
Q 4056 2841 4056 2131 
z
" transform="scale(0.015625)"/>
      <path id="DejaVuSans-Bold-63" d="M 3366 3391 
L 3366 2478 
Q 3138 2634 2908 2709 
Q 2678 2784 2431 2784 
Q 1963 2784 1702 2511 
Q 1441 2238 1441 1747 
Q 1441 1256 1702 982 
Q 1963 709 2431 709 
Q 2694 709 2930 787 
Q 3166 866 3366 1019 
L 3366 103 
Q 3103 6 2833 -42 
Q 2563 -91 2291 -91 
Q 1344 -91 809 395 
Q 275 881 275 1747 
Q 275 2613 809 3098 
Q 1344 3584 2291 3584 
Q 2566 3584 2833 3536 
Q 3100 3488 3366 3391 
z
" transform="scale(0.015625)"/>
      <path id="DejaVuSans-Bold-68" d="M 4056 2131 
L 4056 0 
L 2931 0 
L 2931 347 
L 2931 1625 
Q 2931 2084 2911 2256 
Q 2891 2428 2841 2509 
Q 2775 2619 2662 2680 
Q 2550 2741 2406 2741 
Q 2056 2741 1856 2470 
Q 1656 2200 1656 1722 
L 1656 0 
L 538 0 
L 538 4863 
L 1656 4863 
L 1656 2988 
Q 1909 3294 2193 3439 
Q 2478 3584 2822 3584 
Q 3428 3584 3742 3212 
Q 4056 2841 4056 2131 
z
" transform="scale(0.015625)"/>
      <path id="DejaVuSans-Bold-6d" d="M 3781 2919 
Q 3994 3244 4286 3414 
Q 4578 3584 4928 3584 
Q 5531 3584 5847 3212 
Q 6163 2841 6163 2131 
L 6163 0 
L 5038 0 
L 5038 1825 
Q 5041 1866 5042 1909 
Q 5044 1953 5044 2034 
Q 5044 2406 4934 2573 
Q 4825 2741 4581 2741 
Q 4263 2741 4089 2478 
Q 3916 2216 3909 1719 
L 3909 0 
L 2784 0 
L 2784 1825 
Q 2784 2406 2684 2573 
Q 2584 2741 2328 2741 
Q 2006 2741 1831 2477 
Q 1656 2213 1656 1722 
L 1656 0 
L 531 0 
L 531 3500 
L 1656 3500 
L 1656 2988 
Q 1863 3284 2130 3434 
Q 2397 3584 2719 3584 
Q 3081 3584 3359 3409 
Q 3638 3234 3781 2919 
z
" transform="scale(0.015625)"/>
      <path id="DejaVuSans-Bold-6b" d="M 538 4863 
L 1656 4863 
L 1656 2216 
L 2944 3500 
L 4244 3500 
L 2534 1894 
L 4378 0 
L 3022 0 
L 1656 1459 
L 1656 0 
L 538 0 
L 538 4863 
z
" transform="scale(0.015625)"/>
      <path id="DejaVuSans-Bold-41" d="M 3419 850 
L 1538 850 
L 1241 0 
L 31 0 
L 1759 4666 
L 3194 4666 
L 4922 0 
L 3713 0 
L 3419 850 
z
M 1838 1716 
L 3116 1716 
L 2478 3572 
L 1838 1716 
z
" transform="scale(0.015625)"/>
      <path id="DejaVuSans-Bold-69" d="M 538 3500 
L 1656 3500 
L 1656 0 
L 538 0 
L 538 3500 
z
M 538 4863 
L 1656 4863 
L 1656 3950 
L 538 3950 
L 538 4863 
z
" transform="scale(0.015625)"/>
      <path id="DejaVuSans-Bold-74" d="M 1759 4494 
L 1759 3500 
L 2913 3500 
L 2913 2700 
L 1759 2700 
L 1759 1216 
Q 1759 972 1856 886 
Q 1953 800 2241 800 
L 2816 800 
L 2816 0 
L 1856 0 
Q 1194 0 917 276 
Q 641 553 641 1216 
L 641 2700 
L 84 2700 
L 84 3500 
L 641 3500 
L 641 4494 
L 1759 4494 
z
" transform="scale(0.015625)"/>
      <path id="DejaVuSans-Bold-75" d="M 500 1363 
L 500 3500 
L 1625 3500 
L 1625 3150 
Q 1625 2866 1622 2436 
Q 1619 2006 1619 1863 
Q 1619 1441 1641 1255 
Q 1663 1069 1716 984 
Q 1784 875 1895 815 
Q 2006 756 2150 756 
Q 2500 756 2700 1025 
Q 2900 1294 2900 1772 
L 2900 3500 
L 4019 3500 
L 4019 0 
L 2900 0 
L 2900 506 
Q 2647 200 2364 54 
Q 2081 -91 1741 -91 
Q 1134 -91 817 281 
Q 500 653 500 1363 
z
" transform="scale(0.015625)"/>
     </defs>
     <use xlink:href="#DejaVuSans-Bold-4f"/>
     <use xlink:href="#DejaVuSans-Bold-76" x="85.009766"/>
     <use xlink:href="#DejaVuSans-Bold-65" x="150.195312"/>
     <use xlink:href="#DejaVuSans-Bold-72" x="218.017578"/>
     <use xlink:href="#DejaVuSans-Bold-61" x="267.333984"/>
     <use xlink:href="#DejaVuSans-Bold-6c" x="334.814453"/>
     <use xlink:href="#DejaVuSans-Bold-6c" x="369.091797"/>
     <use xlink:href="#DejaVuSans-Bold-20" x="403.369141"/>
     <use xlink:href="#DejaVuSans-Bold-42" x="438.183594"/>
     <use xlink:href="#DejaVuSans-Bold-65" x="514.404297"/>
     <use xlink:href="#DejaVuSans-Bold-6e" x="582.226562"/>
     <use xlink:href="#DejaVuSans-Bold-63" x="653.417969"/>
     <use xlink:href="#DejaVuSans-Bold-68" x="712.695312"/>
     <use xlink:href="#DejaVuSans-Bold-6d" x="783.886719"/>
     <use xlink:href="#DejaVuSans-Bold-61" x="888.085938"/>
     <use xlink:href="#DejaVuSans-Bold-72" x="955.566406"/>
     <use xlink:href="#DejaVuSans-Bold-6b" x="1004.882812"/>
     <use xlink:href="#DejaVuSans-Bold-20" x="1071.386719"/>
     <use xlink:href="#DejaVuSans-Bold-41" x="1106.201172"/>
     <use xlink:href="#DejaVuSans-Bold-72" x="1183.59375"/>
     <use xlink:href="#DejaVuSans-Bold-63" x="1232.910156"/>
     <use xlink:href="#DejaVuSans-Bold-68" x="1292.1875"/>
     <use xlink:href="#DejaVuSans-Bold-69" x="1363.378906"/>
     <use xlink:href="#DejaVuSans-Bold-74" x="1397.65625"/>
     <use xlink:href="#DejaVuSans-Bold-65" x="1445.458984"/>
     <use xlink:href="#DejaVuSans-Bold-63" x="1513.28125"/>
     <use xlink:href="#DejaVuSans-Bold-74" x="1572.558594"/>
     <use xlink:href="#DejaVuSans-Bold-75" x="1620.361328"/>
     <use xlink:href="#DejaVuSans-Bold-72" x="1691.552734"/>
     <use xlink:href="#DejaVuSans-Bold-65" x="1740.869141"/>
    </g>
   </g>
  </g>
 </g>
 <defs>
  <clipPath id="p27a7ae97b6">
   <rect x="7.2" y="25.837812" width="412.92" height="299.376"/>
  </clipPath>
 </defs>
</svg>
